# xmcd
#
# Track frame offsets:
#        150
#        8030
#        39567
#        65890
#        87135
#        107562
#        131240
#        148727
#        162447
#        185460
#        213292
#        249402
#        269187
#        294937
#        317972
#
# Disc length: 4482 seconds
#
# Revision: 0
# Processed by: cddbd v1.5.1PL0 Copyright (c) Steve Scherf et al.
# Submitted via: ExactAudioCopy v0.95a5
#
DISCID=e511800f
DTITLE=Various Artist - Brazilian Love Affair 2
DYEAR=1900
DGENRE=A Cappella
TTITLE0=Intro-Friends From Rio 2 [Joe's Slaves Percussion Edit]
TTITLE1=Friends From Rio 2 [Os Escravos Do Jo]
TTITLE2=Da Lata [Ponteio]
TTITLE3=Azymuth Feat. Marcos Valle [Quem Com Quem]
TTITLE4=Celia Vaz and Ape [Nas Aguas Do Rio]
TTITLE5=Azymuth [Ape Remix - Times Before]
TTITLE6=Wilson Des Neves [Soberane]
TTITLE7=Joyce [Quarup]
TTITLE8=Grupo Batuque [Mama Samba]
TTITLE9=Marcos Valle [Freio Aerodynamico]
TTITLE10=Azymuth [Jazzanove Remix - Amazon Adventure]
TTITLE11=Aricia Mess [Canto De Libertacao The Song Of Freedom]
TTITLE12=Tutti Moreno And Friends [Constelacao]
TTITLE13=Victor Assis Brasil [Dindi]
TTITLE14=Victor Assis Brasil [So Tinha De Ser Com Voce]
EXTD=
EXTT0=
EXTT1=
EXTT2=
EXTT3=
EXTT4=
EXTT5=
EXTT6=
EXTT7=
EXTT8=
EXTT9=
EXTT10=
EXTT11=
EXTT12=
EXTT13=
EXTT14=
PLAYORDER=
